# AST/ASF file generated using VICON BodyLanguage
# -----------------------------------------------
:version 1.10
:name VICON
:units
  mass 1.0
  length 0.45
  angle deg
:documentation
   .ast/.asf automatically generated from VICON data using
   VICON BodyBuilder and BodyLanguage model FoxedUp or BRILLIANT.MOD
:root
   order TX TY TZ RX RY RZ
   axis XYZ
   position 0 0 0  
   orientation 0 0 0 
:bonedata
  begin
     id 1 
     name lhipjoint
     direction 0.603808 -0.713975 0.35448 
     length 2.2025 
     axis 0 0 0  XYZ
  end
  begin
     id 2 
     name lfemur
     direction 0.34202 -0.939693 0  
     length 6.55877  
     axis 0 0 20  XYZ
    dof rx ry rz
    limits (-160.0 20.0)
           (-70.0 70.0)
           (-60.0 70.0)
  end
  begin
     id 3 
     name ltibia
     direction 0.34202 -0.939693 0   
     length 6.80302   
     axis 0 0 20   XYZ
    dof rx
    limits (-10.0 170.0)
  end
  begin
     id 4 
     name lfoot
     direction 0.091848 -0.25235 0.963267   
     length 2.03446   
     axis -90 7.62852e-016 20   XYZ
    dof rx rz
    limits (-45.0 90.0)
           (-70.0 20.0)
  end
  begin
     id 5 
     name ltoes
     direction 1.53608e-011 -4.21925e-011 1   
     length 1.02033   
     axis -90 7.62852e-016 20   XYZ
    dof rx
    limits (-90.0 20.0)
  end
  begin
     id 6 
     name rhipjoint
     direction -0.587285 -0.724947 0.359928   
     length 2.16916  
     axis 0 0 0  XYZ 
  end
  begin
     id 7 
     name rfemur
     direction -0.34202 -0.939693 0   
     length 6.43173   
     axis 0 0 -20   XYZ
    dof rx ry rz
    limits (-160.0 20.0)
           (-70.0 70.0)
           (-70.0 60.0)
  end
  begin
     id 8 
     name rtibia
     direction -0.34202 -0.939693 0   
     length 6.70662   
     axis 0 0 -20   XYZ
    dof rx
    limits (-10.0 170.0)
 end
 begin
     id 9 
     name rfoot
     direction -0.11854 -0.325686 0.938018   
     length 2.0773  
     axis -90 -7.62852e-016 -20   XYZ
    dof rx rz
    limits (-45.0 90.0)
           (-20.0 70.0)
  end
  begin
     id 10 
     name rtoes
     direction -1.53547e-011 -4.21838e-011 1   
     length 1.03267   
     axis -90 -7.62852e-016 -20   XYZ
    dof rx
    limits (-90.0 20.0)
  end
  begin
     id 11 
     name lowerback
     direction -0.0286554 0.999539 0.0100613   
     length 2.08751   
     axis 0 0 0   XYZ
    dof rx ry rz
    limits (-20.0 45.0)
           (-30.0 30.0)
           (-30.0 30.0)
  end
  begin
     id 12 
     name upperback
     direction 0.0227093 0.999705 -0.00860929   
     length 2.08517   
     axis 0 0 0   XYZ
    dof rx ry rz
    limits (-20.0 45.0)
           (-30.0 30.0)
           (-30.0 30.0)
  end
  begin
     id 13 
     name thorax
     direction 0.0351627 0.999285 -0.013892   
     length 2.08412   
     axis 0 0 0   XYZ
    dof rx ry rz
    limits (-20.0 45.0)
           (-30.0 30.0)
           (-30.0 30.0)
  end
  begin
     id 14 
     name lowerneck
     direction -0.0696283 0.997344 0.0213922   
     length 1.44164   
     axis 0 0 0   XYZ
    dof rx ry rz
    limits (-20.0 45.0)
           (-30.0 30.0)
           (-30.0 30.0)
  end
  begin
     id 15 
     name upperneck
     direction 0.0531 0.990412 -0.127531   
     length 1.45022   
     axis 0 0 0   XYZ
    dof rx ry rz
    limits (-20.0 45.0)
           (-30.0 30.0)
           (-30.0 30.0)
  end
  begin
     id 16
     name head
     direction 0.0188154 0.998548 -0.0504727  
     length 1.45845  
     axis 0 0 0   XYZ
    dof rx ry rz
    limits (-20.0 45.0)
           (-30.0 30.0)
           (-30.0 30.0)
  end
  begin
     id 17 
     name lclavicle
     direction 0.961559 0.260051 0.088188  
     length 2.86057  
     axis 0 0 0   XYZ
    dof ry rz
    limits (-20.0 10.0)
           (0.0 20.0)
  end
  begin
     id 18 
     name lhumerus
     direction 1 -4.48959e-011 2.88185e-027   
     length 4.36901   
     axis 180 -30 -90   XYZ
    dof rx ry rz
    limits (-60.0 90.0)
           (-90.0 90.0)
           (-90.0 90.0)
  end
  begin
     id 19
     name lradius
     direction 1 -4.48965e-011 -3.92618e-028   
     length 3.21737   
     axis 180 -30 -90   XYZ
    dof rx
    limits (-10.0 170.0)
  end
  begin
     id 20
     name lwrist
     direction 1 -4.49037e-011 2.57246e-027   
     length 1.60869   
     axis -1.61769e-015 90 90   XYZ
    dof ry
    limits (-180.0 0.0)
 end
  begin
     id 21 
     name lhand
     direction 1 -4.48807e-011 5.12958e-027   
     length 0.564313   
     axis -3.27988e-015 90 90   XYZ
    dof rx rz
    limits (-90.0 90.0)
           (-45.0 45.0)
  end
  begin
     id 22 
     name lfingers
     direction 1 -4.48879e-011 1.02687e-026   
     length 0.454963   
     axis -6.5598e-015 90 90   XYZ
    dof rx
    limits (0.0 90.0)
  end
  begin
     id 23
     name lthumb
     direction 0.707107 -6.3475e-011 0.707107   
     length 0.653239   
     axis -90 45 2.19363e-014   XYZ
    dof rx rz
    limits (-45.0 45.0)
           (-45.0 45.0)
  end
  begin
     id 24 
     name rclavicle
     direction -0.954677 0.253915 0.155304   
     length 3.11497  
     axis 0 0 0   XYZ 
    dof ry rz
    limits (-10.0 20.0)
           (-20.0 0.0)
  end
  begin
     id 25 
     name rhumerus
     direction -1 -4.48958e-011 -8.20169e-028  
     length 4.34118   
     axis 180 30 90   XYZ
    dof rx ry rz
    limits (-90.0 60.0)
           (-90.0 90.0)
           (-90.0 90.0)
  end
  begin
     id 26 
     name rradius
     direction -1 -4.48978e-011 1.5676e-027   
     length 3.09531   
     axis 180 30 90   XYZ
    dof rx
    limits (-10.0 170.0)
  end
  begin
     id 27 
     name rwrist
     direction -1 -4.49001e-011 2.57123e-027   
     length 1.54765   
     axis -1.61769e-015 -90 -90   XYZ
    dof ry
    limits (-180.0 0.0)
  end
  begin
     id 28
     name rhand
     direction -1 -4.48847e-011 5.13225e-027   
     length 0.597446   
     axis -3.27988e-015 -90 -90   XYZ
    dof rx rz
    limits (-90.0 90.0)
           (-45.0 45.0)
  end
  begin
     id 29
     name rfingers
     direction -1 -4.49094e-011 1.02974e-026   
     length 0.481677   
     axis -6.5598e-015 -90 -90   XYZ
    dof rx
    limits (0.0 90.0)
  end
  begin
     id 30
     name rthumb
     direction -0.707107 -6.34859e-011 0.707107   
     length 0.691594   
     axis -90 -45 -2.19363e-014   XYZ
    dof rx rz
    limits (-45.0 45.0)
           (-45.0 45.0)
  end
:hierarchy
  begin
    root lhipjoint rhipjoint lowerback
    lhipjoint lfemur
    lfemur ltibia
    ltibia lfoot
    lfoot ltoes
    rhipjoint rfemur
    rfemur rtibia
    rtibia rfoot
    rfoot rtoes
    lowerback upperback
    upperback thorax
    thorax lowerneck lclavicle rclavicle
    lowerneck upperneck
    upperneck head
    lclavicle lhumerus
    lhumerus lradius
    lradius lwrist
    lwrist lhand lthumb
    lhand lfingers
    rclavicle rhumerus
    rhumerus rradius
    rradius rwrist
    rwrist rhand rthumb
    rhand rfingers
  end

#!OML:ASF I:\Acrobat_Osman\acrobat\cartwheel_test 2\Patient 1\Session 1\acrobat.ASF
:FULLY-SPECIFIED
:DEGREES
145
root 10.2368 15.6609 -0.317453 4.46155 -96.3642 3.51111
lowerback -1.82426 -5.15518 -5.34345
upperback 3.20223 -6.81059 2.16245
thorax 5.24967 -3.64876 4.74808
lowerneck 0.717971 -15.502 -17.8238
upperneck 1.17799 -21.8557 20.4229
head 4.52633 -10.8998 7.52746
rclavicle 1.22377e-013 1.09332e-015
rhumerus -32.5099 -15.4439 -8.23488
rradius 29.2678
rwrist 12.2661
rhand -32.0936 28.1973
rfingers 7.12502
rthumb -5.3391 -1.71548
lclavicle 1.22377e-013 1.09332e-015
lhumerus -11.2532 16.0639 16.9891
lradius 29.8627
lwrist 34.0687
lhand -16.1583 -303.272
lfingers 7.12502
lthumb 10.0475 -273.532
rfemur -16.1003 12.6793 5.97438
rtibia 21.1031
rfoot -14.7898 -11.4468
rtoes -11.9748
lfemur -12.398 12.716 -6.79619
ltibia 28.0648
lfoot -9.95174 23.6741
ltoes -24.0964
146
root 10.2475 15.6428 -0.357639 7.13354 -100.38 0.54444
lowerback -1.59461 -6.35455 -6.07097
upperback 3.15841 -8.40958 2.23859
thorax 5.40758 -4.47758 5.09324
lowerneck 0.342995 -15.0066 -17.3864
upperneck 1.78511 -21.1794 19.9173
head 4.52893 -10.542 7.38224
rclavicle 1.00883e-014 -8.54774e-015
rhumerus -34.5149 -14.6958 -7.42892
rradius 29.3975
rwrist 11.1731
rhand -30.8839 23.1232
rfingers 7.12502
rthumb -4.17103 -6.81573
lclavicle 1.00883e-014 -8.54774e-015
lhumerus -8.69462 17.6814 19.3073
lradius 28.5514
lwrist 30.3228
lhand -15.2653 -304.988
lfingers 7.12502
lthumb 10.9088 -275.292
rfemur -17.9368 14.0799 5.36022
rtibia 22.3227
rfoot -14.5535 -9.24745
rtoes -12.5005
lfemur -10.1226 13.527 -7.06149
ltibia 27.1704
lfoot -11.3779 25.7452
ltoes -20.9055
147
root 10.2612 15.6203 -0.390286 8.6314 -104.481 -1.23261
lowerback -1.42836 -7.59416 -6.88287
upperback 3.14808 -10.0601 2.28461
thorax 5.69907 -5.33911 5.41433
lowerneck -0.371531 -14.4016 -17.0094
upperneck 2.71102 -20.3492 19.3747
head 4.66383 -10.0866 7.21905
rclavicle 9.21864e-014 -6.55989e-015
rhumerus -36.0478 -14.2355 -6.81955
rradius 29.4289
rwrist 9.93763
rhand -31.2623 23.9973
rfingers 7.12502
rthumb -4.53638 -5.93408
lclavicle 9.21864e-014 -6.55989e-015
lhumerus -7.83214 10.445 20.5868
lradius 30.7159
lwrist 35.7352
lhand -16.6462 -304.769
lfingers 7.12502
lthumb 9.57672 -275.006
rfemur -19.9751 15.0381 4.68771
rtibia 23.6912
rfoot -14.2236 -6.71492
rtoes -14.1883
lfemur -7.88424 14.1249 -7.58927
ltibia 26.2584
lfoot -13.1123 27.9762
ltoes -17.8248
148
root 10.2783 15.5916 -0.419867 9.75266 -108.836 -2.4341
lowerback -1.51194 -8.77747 -7.70311
upperback 3.04452 -11.615 2.27929
thorax 6.05361 -6.14738 5.63604
lowerneck -1.1565 -13.6812 -16.6044
upperneck 3.91689 -19.3738 18.6586
head 4.85457 -9.5569 7.00799
rclavicle 5.91881e-014 9.93923e-016
rhumerus -37.2115 -13.8627 -6.24726
rradius 29.1142
rwrist 8.61777
rhand -30.7718 22.1834
rfingers 7.12502
rthumb -4.06277 -7.75761
lclavicle 5.91881e-014 9.93923e-016
lhumerus -5.78499 11.8666 22.6518
lradius 30.2771
lwrist 32.7044
lhand -16.1693 -306.158
lfingers 7.12502
lthumb 10.0368 -276.417
rfemur -22.442 15.909 3.93582
rtibia 25.1692
rfoot -13.9743 -4.04465
rtoes -15.7307
lfemur -5.86241 14.811 -8.3509
ltibia 25.3202
lfoot -14.6003 30.417
ltoes -15.9681
149
root 10.2917 15.5519 -0.444805 10.2691 -113.393 -3.21484
lowerback -1.46988 -9.82496 -8.50889
upperback 2.87493 -12.9976 2.26782
thorax 6.26946 -6.86278 5.86
lowerneck -1.84908 -12.8724 -16.1064
upperneck 5.17787 -18.2444 17.5612
head 4.98403 -8.96575 6.6901
rclavicle 1.01678e-013 -6.55989e-015
rhumerus -38.7319 -13.6239 -5.59145
rradius 29.1463
rwrist 8.60041
rhand -31.324 20.8932
rfingers 7.12502
rthumb -4.59599 -9.03698
lclavicle 1.01678e-013 -6.55989e-015
lhumerus -4.13747 10.9815 24.6544
lradius 30.9743
lwrist 33.0669
lhand -16.4758 -306.954
lfingers 7.12502
lthumb 9.74112 -277.2
rfemur -24.7912 17.0206 3.21019
rtibia 26.6608
rfoot -13.8463 -1.52454
rtoes -16.677
lfemur -3.63279 15.4266 -9.20343
ltibia 24.3613
lfoot -16.463 32.8845
ltoes -13.6809
150
root 10.3014 15.5068 -0.464621 10.0077 -117.898 -3.53399
lowerback -1.19243 -10.7829 -9.2887
upperback 2.8128 -14.2936 2.33282
thorax 6.50011 -7.54504 6.16686
lowerneck -2.75814 -11.9745 -15.5312
upperneck 6.49582 -16.9252 16.1949
head 5.12612 -8.28392 6.28055
rclavicle 1.05753e-013 -2.06736e-014
rhumerus -40.1088 -13.9502 -4.52167
rradius 28.4696
rwrist 8.51642
rhand -31.7213 23.884
rfingers 7.12502
rthumb -4.9796 -6.03749
lclavicle 1.05753e-013 -2.06736e-014
lhumerus -2.76417 10.8651 26.5317
lradius 31.6117
lwrist 32.9002
lhand -16.2838 -307.963
lfingers 7.12502
lthumb 9.92635 -278.217
rfemur -26.6751 18.2961 2.73575
rtibia 28.0654
rfoot -13.8513 0.81251
rtoes -17.231
lfemur -1.07004 15.7077 -9.9932
ltibia 23.3862
lfoot -19.4851 35.0882
ltoes -9.30008
151
root 10.2994 15.465 -0.483722 9.49241 -122.362 -3.71279
lowerback -0.948606 -11.685 -10.029
upperback 2.78799 -15.5199 2.39722
thorax 6.79976 -8.19517 6.42919
lowerneck -3.50343 -10.9327 -14.6632
upperneck 7.66358 -15.3918 14.5811
head 5.1492 -7.52221 5.78035
rclavicle 6.2816e-014 -1.74931e-014
rhumerus -41.3664 -14.091 -3.76097
rradius 27.9178
rwrist 8.05337
rhand -32.2655 24.2778
rfingers 7.12502
rthumb -5.50508 -5.63069
lclavicle 6.2816e-014 -1.74931e-014
lhumerus -0.270707 12.0136 29.2102
lradius 31.2984
lwrist 31.5304
lhand -16.2136 -309.006
lfingers 7.12502
lthumb 9.99408 -279.263
rfemur -28.276 19.518 2.43526
rtibia 29.3212
rfoot -13.8961 3.14439
rtoes -17.5913
lfemur 1.57423 15.6002 -10.8958
ltibia 22.4219
lfoot -23.7799 36.902
ltoes -2.69291
152
root 10.2801 15.4303 -0.501818 8.7861 -126.834 -3.83057
lowerback -0.692275 -12.5079 -10.5667
upperback 2.73083 -16.645 2.38378
thorax 6.98064 -8.77768 6.5205
lowerneck -3.80946 -9.73168 -13.6544
upperneck 8.68164 -13.6937 12.8963
head 5.05817 -6.71493 5.26555
rclavicle 4.91992e-015 1.23246e-014
rhumerus -42.814 -13.6912 -3.42201
rradius 27.7821
rwrist 6.92095
rhand -33.604 26.5605
rfingers 7.12502
rthumb -6.79728 -3.31043
lclavicle 4.91992e-015 1.23246e-014
lhumerus 2.10053 12.1548 31.7287
lradius 31.2943
lwrist 30.0942
lhand -17.3389 -308.244
lfingers 7.12502
lthumb 8.90828 -278.452
rfemur -29.6153 20.6465 2.32191
rtibia 30.4923
rfoot -13.9317 5.45446
rtoes -18.0396
lfemur 4.35844 15.1954 -11.9297
ltibia 21.4332
lfoot -27.4137 38.7067
ltoes 1.70459
153
root 10.2523 15.3944 -0.518798 7.89064 -131.282 -3.83014
lowerback -0.387686 -13.236 -10.8549
upperback 2.66533 -17.655 2.34788
thorax 7.03119 -9.2875 6.49741
lowerneck -4.28099 -8.45489 -12.6527
upperneck 9.90651 -11.8907 11.114
head 5.09102 -5.86896 4.70187
rclavicle 1.38006e-013 -1.11319e-014
rhumerus -44.4949 -15.3656 -1.62557
rradius 26.9447
rwrist 8.77761
rhand -34.8114 32.1578
rfingers 7.12502
rthumb -7.96278 2.32774
lclavicle 1.38006e-013 -1.11319e-014
lhumerus 4.03803 12.1172 34.2913
lradius 31.7243
lwrist 28.7807
lhand -18.1917 -308.126
lfingers 7.12502
lthumb 8.0853 -278.301
rfemur -30.834 21.909 2.34808
rtibia 31.7521
rfoot -13.816 7.91036
rtoes -16.7077
lfemur 7.33866 14.4133 -13.0047
ltibia 20.3155
lfoot -28.3867 41.1094
ltoes 0.977396
